<svg xmlns="http://www.w3.org/2000/svg" viewBox="0 0 601.469 601.469"><g style="transform-origin:0 0 0"><path fill="#9D0B1C" style="--darkreader-inline-fill:#9d0b1c" d="M168.186 13.54l-11.391 581.31 437.288-183.521" data-svg-origin="375.4390106201172 304.1949987411499"/></g><g opacity=".5"><g class="svgmator"><defs><path id="a" d="M168.186 13.54l-11.391 581.31 437.288-183.521"/></defs><g class="svgmator"><clipPath id="b"/></g><path clip-path="url(#b)" fill="#231F20" style="--darkreader-inline-fill:#1f2123" d="M139.47 110.611l-17.913 102.33 341.205-.079 17.819-102.329"/></g><g class="svgmator"><defs><path id="c" d="M168.186 13.54l-11.391 581.31 437.288-183.521"/></defs><g class="svgmator"><clipPath id="d"/></g><path clip-path="url(#d)" fill="#231F20" style="--darkreader-inline-fill:#1f2123" d="M112.301 264.099L67.374 520.02l-37.253 31.371 63.111 62.44 70.436-60.008 32.907-187.313 135.877.1-34.666 199.935 110.771-46.486 45.981-261.279"/></g></g><path d="M122.776 86.75l-17.912 102.33 341.203-.079 17.82-102.33" data-svg-origin="284.37550354003906 137.8754997253418"/><path d="M95.607 240.237L50.68 496.161 13.428 527.53l63.11 62.439 70.436-60.008 32.906-187.313 135.878.101-34.666 199.935 110.77-46.488 44.855-256.037" data-svg-origin="225.07250118255615 415.0639953613281"/><g class="svgmator"><radialGradient id="e" cx="425.734" cy="33.642" r="194.146" fx="457.137" fy="71.403" gradientTransform="matrix(1 0 0 -1 8.34 577.51)" gradientUnits="userSpaceOnUse"/></g><path fill="url(#e)" d="M95.607 240.237L50.68 496.161 13.428 527.53l63.11 62.439 70.436-60.008 32.906-187.313 135.878.101-34.666 199.935 110.77-46.488 44.855-256.037" data-svg-origin="225.07250118255615 415.0639953613281"/></svg>